<?xml version="1.0" standalone="no"?>
<!DOCTYPE svg PUBLIC "-//W3C//DTD SVG 1.1//EN"
"http://www.w3.org/Graphics/SVG/1.1/DTD/svg11.dtd">
<svg width="8.68376cm" height="6.93cm" viewBox="-103.947 52.85 86.8376 69.3" xmlns="http://www.w3.org/2000/svg" version = "1.1">
<title>Dummy Mount.123dx</title>
<desc> made with Tinkercad 123D Design </desc>
<path d="M -22.7114 95.6341 L -23.4707 97.1999 L -23.6226 97.5131 L -24.5349 98.995 L -24.7174 99.2913 L -25.7736 100.674 L -25.9849 100.951 L -26.2227 101.205 L -27.4122 102.475 L -27.6743 102.704 L -28.985 103.849 L -30.4038 104.857 L -30.6876 105.058 L -32.2002 105.919 L -32.5027 106.091 L -53.8353 116.848 L -58.1018 119 L -93.017 119 L -100 119 L -100 66.5 L -100 56 L -65.0849 56 L -58.1018 56 L -36.7692 66.7576 L -32.5027 68.9091 L -30.9901 69.7696 L -30.6876 69.9417 L -29.2688 70.9494 L -28.985 71.151 L -27.6743 72.2957 L -27.4122 72.5247 L -26.2227 73.7949 L -25.9849 74.049 L -24.9286 75.432 L -24.7174 75.7087 L -23.805 77.1905 L -23.6226 77.4869 L -22.8632 79.0528 L -22.7114 79.3659 L -22.1127 80.9999 L -21.993 81.3268 L -21.561 83.0125 L -21.4746 83.3497 L -21.2137 85.0702 L -21.1615 85.4143 L -21.0742 87.1524 L -21.0567 87.5 L -21.144 89.2381 L -21.1615 89.5857 L -21.4224 91.3062 L -21.4746 91.6503 L -21.9066 93.3361 L -21.993 93.6732 L -22.5916 95.3073 z  M -87.1518 103.84 L -87.3022 104.162 L -87.3207 104.231 L -87.4128 104.575 L -87.419 104.645 L -87.45 105 L -87.4438 105.071 L -87.4128 105.425 L -87.3943 105.494 L -87.3022 105.838 L -87.2722 105.902 L -87.1218 106.225 L -87.0809 106.283 L -86.8768 106.575 L -86.8265 106.625 L -86.5748 106.877 L -86.5165 106.918 L -86.225 107.122 L -86.1605 107.152 L -85.8379 107.302 L -85.7692 107.321 L -85.4254 107.413 L -85.3545 107.419 L -85 107.45 L -84.9291 107.444 L -84.5746 107.413 L -84.5058 107.394 L -84.1621 107.302 L -84.0975 107.272 L -83.775 107.122 L -83.7167 107.081 L -83.4252 106.877 L -83.3748 106.826 L -83.1232 106.575 L -83.0824 106.517 L -82.8782 106.225 L -82.8482 106.16 L -82.6978 105.838 L -82.6793 105.769 L -82.5872 105.425 L -82.581 105.355 L -82.55 105 L -82.5562 104.929 L -82.5872 104.575 L -82.6057 104.506 L -82.6978 104.162 L -82.7278 104.098 L -82.8782 103.775 L -82.9191 103.717 L -83.1232 103.425 L -83.1735 103.375 L -83.4252 103.123 L -83.4835 103.082 L -83.775 102.878 L -83.8395 102.848 L -84.1621 102.698 L -84.2308 102.679 L -84.5746 102.587 L -84.6455 102.581 L -85 102.55 L -85.0709 102.556 L -85.4254 102.587 L -85.4942 102.606 L -85.8379 102.698 L -85.9025 102.728 L -86.225 102.878 L -86.2833 102.919 L -86.5748 103.123 L -86.6252 103.174 L -86.8768 103.425 L -86.9176 103.483 L -87.1218 103.775 z  M -38.5655 80.5393 L -39.5857 80.45 L -39.7897 80.4678 L -40.8099 80.5571 L -41.0077 80.6101 L -41.9969 80.8752 L -42.1826 80.9617 L -43.1107 81.3945 L -43.2785 81.512 L -44.1173 82.0994 L -44.2622 82.2442 L -44.9863 82.9684 L -45.1038 83.1361 L -45.6912 83.975 L -45.7777 84.1606 L -46.2105 85.0888 L -46.2635 85.2866 L -46.5286 86.2758 L -46.5464 86.4798 L -46.6357 87.5 L -46.6178 87.704 L -46.5286 88.7242 L -46.4756 88.9221 L -46.2105 89.9112 L -46.124 90.0969 L -45.6912 91.025 L -45.5737 91.1928 L -44.9863 92.0316 L -44.8415 92.1765 L -44.1173 92.9006 L -43.9496 93.0181 L -43.1107 93.6055 L -42.9251 93.692 L -41.9969 94.1248 L -41.7991 94.1778 L -40.8099 94.4429 L -40.6059 94.4607 L -39.5857 94.55 L -39.3816 94.5322 L -38.3615 94.4429 L -38.1636 94.3899 L -37.1744 94.1248 L -36.9888 94.0383 L -36.0607 93.6055 L -35.8929 93.488 L -35.054 92.9006 L -34.9092 92.7558 L -34.1851 92.0316 L -34.0676 91.8639 L -33.4802 91.025 L -33.3936 90.8394 L -32.9609 89.9112 L -32.9078 89.7134 L -32.6428 88.7242 L -32.6249 88.5202 L -32.5357 87.5 L -32.5535 87.296 L -32.6428 86.2758 L -32.6958 86.0779 L -32.9609 85.0888 L -33.0474 84.9031 L -33.4802 83.975 L -33.5977 83.8072 L -34.1851 82.9684 L -34.3299 82.8235 L -35.054 82.0994 L -35.2218 81.9819 L -36.0607 81.3945 L -36.2463 81.308 L -37.1744 80.8752 L -37.3723 80.8222 L -38.3615 80.5571 z  M -84.6455 67.581 L -85 67.55 L -85.0709 67.5562 L -85.4254 67.5872 L -85.4942 67.6056 L -85.8379 67.6978 L -85.9025 67.7278 L -86.225 67.8782 L -86.2833 67.9191 L -86.5748 68.1232 L -86.6252 68.1735 L -86.8768 68.4252 L -86.9176 68.4835 L -87.1218 68.775 L -87.1518 68.8395 L -87.3022 69.162 L -87.3207 69.2308 L -87.4128 69.5746 L -87.419 69.6455 L -87.45 70 L -87.4438 70.0709 L -87.4128 70.4254 L -87.3943 70.4942 L -87.3022 70.838 L -87.2722 70.9025 L -87.1218 71.225 L -87.0809 71.2833 L -86.8768 71.5748 L -86.8265 71.6252 L -86.5748 71.8768 L -86.5165 71.9176 L -86.225 72.1218 L -86.1605 72.1518 L -85.8379 72.3022 L -85.7692 72.3207 L -85.4254 72.4128 L -85.3545 72.419 L -85 72.45 L -84.9291 72.4438 L -84.5746 72.4128 L -84.5058 72.3944 L -84.1621 72.3022 L -84.0975 72.2722 L -83.775 72.1218 L -83.7167 72.0809 L -83.4252 71.8768 L -83.3748 71.8265 L -83.1232 71.5748 L -83.0824 71.5165 L -82.8782 71.225 L -82.8482 71.1605 L -82.6978 70.838 L -82.6793 70.7692 L -82.5872 70.4254 L -82.581 70.3545 L -82.55 70 L -82.5562 69.9291 L -82.5872 69.5746 L -82.6057 69.5058 L -82.6978 69.162 L -82.7278 69.0975 L -82.8782 68.775 L -82.9191 68.7167 L -83.1232 68.4252 L -83.1735 68.3748 L -83.4252 68.1232 L -83.4835 68.0824 L -83.775 67.8782 L -83.8395 67.8482 L -84.1621 67.6978 L -84.2308 67.6793 L -84.5746 67.5872 z  " fill= "none" stroke="rgb(0,0,255)" stroke-width="0.05mm" />
</svg>
