<?xml version="1.0" standalone="no"?>
<!DOCTYPE svg PUBLIC "-//W3C//DTD SVG 1.1//EN"
"http://www.w3.org/Graphics/SVG/1.1/DTD/svg11.dtd">
<svg width="8.32396cm" height="6.71cm" viewBox="-103.784 53.95 83.2396 67.1" xmlns="http://www.w3.org/2000/svg" version = "1.1">
<title>Motor Mount.123dx</title>
<desc> made with Tinkercad 123D Design </desc>
<path d="M -84.1621 67.6978 L -83.8395 67.8482 L -83.775 67.8782 L -83.4835 68.0824 L -83.4252 68.1232 L -83.1735 68.3748 L -83.1232 68.4252 L -82.9191 68.7167 L -82.8782 68.775 L -82.7278 69.0975 L -82.6978 69.162 L -82.6057 69.5058 L -82.5872 69.5746 L -82.5562 69.9291 L -82.55 70 L -82.581 70.3545 L -82.5872 70.4254 L -82.6793 70.7692 L -82.6978 70.838 L -82.8482 71.1605 L -82.8782 71.225 L -83.0824 71.5165 L -83.1232 71.5748 L -83.3748 71.8265 L -83.4252 71.8768 L -83.7167 72.0809 L -83.775 72.1218 L -84.0975 72.2722 L -84.1621 72.3022 L -84.5058 72.3944 L -84.5746 72.4128 L -84.9291 72.4438 L -85 72.45 L -85.3545 72.419 L -85.4254 72.4128 L -85.7692 72.3207 L -85.8379 72.3022 L -86.1605 72.1518 L -86.225 72.1218 L -86.5165 71.9176 L -86.5748 71.8768 L -86.8265 71.6252 L -86.8768 71.5748 L -87.0809 71.2833 L -87.1218 71.225 L -87.2722 70.9025 L -87.3022 70.838 L -87.3943 70.4942 L -87.4128 70.4254 L -87.4438 70.0709 L -87.45 70 L -87.419 69.6455 L -87.4128 69.5746 L -87.3207 69.2308 L -87.3022 69.162 L -87.1518 68.8395 L -87.1218 68.775 L -86.9176 68.4835 L -86.8768 68.4252 L -86.6252 68.1735 L -86.5748 68.1232 L -86.2833 67.9191 L -86.225 67.8782 L -85.9025 67.7278 L -85.8379 67.6978 L -85.4942 67.6056 L -85.4254 67.5872 L -85.0709 67.5562 L -85 67.55 L -84.6455 67.581 L -84.5746 67.5872 L -84.2308 67.6793 z  M -45.8292 90.0219 L -45.4314 90.875 L -45.2964 91.0678 L -44.7565 91.8388 L -44.5901 92.0052 L -43.9245 92.6708 L -43.7317 92.8058 L -42.9607 93.3457 L -42.7474 93.4451 L -41.8943 93.8429 L -41.667 93.9038 L -40.7578 94.1475 L -40.5234 94.168 L -39.5857 94.25 L -39.3513 94.2295 L -38.4136 94.1475 L -38.1863 94.0865 L -37.2771 93.8429 L -37.0638 93.7435 L -36.2107 93.3457 L -36.0179 93.2107 L -35.2469 92.6708 L -35.0805 92.5044 L -34.4149 91.8388 L -34.2799 91.646 L -33.74 90.875 L -33.6406 90.6617 L -33.2428 89.8086 L -33.1819 89.5813 L -32.9382 88.6721 L -32.9177 88.4377 L -32.8357 87.5 L -32.8562 87.2656 L -32.9382 86.3279 L -32.9991 86.1006 L -33.2428 85.1914 L -33.3422 84.9781 L -33.74 84.125 L -33.875 83.9322 L -34.4149 83.1612 L -34.5813 82.9948 L -35.2469 82.3292 L -35.4396 82.1942 L -36.2107 81.6543 L -36.424 81.5549 L -37.2771 81.1571 L -37.5044 81.0962 L -38.4136 80.8525 L -38.648 80.832 L -39.5857 80.75 L -39.8201 80.7705 L -40.7578 80.8525 L -40.9851 80.9135 L -41.8943 81.1571 L -42.1076 81.2565 L -42.9607 81.6543 L -43.1535 81.7893 L -43.9245 82.3292 L -44.0909 82.4956 L -44.7565 83.1612 L -44.8915 83.354 L -45.4314 84.125 L -45.5308 84.3383 L -45.9286 85.1914 L -45.9895 85.4187 L -46.2331 86.3279 L -46.2536 86.5623 L -46.3357 87.5 L -46.3152 87.7344 L -46.2331 88.6721 L -46.1722 88.8994 L -45.9286 89.8086 z  M -44.8357 103 L -44.857 103.243 L -44.8623 103.304 L -44.9254 103.54 L -44.9412 103.599 L -45.0444 103.82 L -45.0701 103.875 L -45.2101 104.075 L -45.2451 104.125 L -45.4177 104.297 L -45.4608 104.341 L -45.6607 104.481 L -45.7107 104.516 L -45.9319 104.619 L -45.9871 104.644 L -46.2229 104.708 L -46.2818 104.723 L -46.5249 104.745 L -46.5857 104.75 L -46.8288 104.729 L -46.8896 104.723 L -47.1253 104.66 L -47.1842 104.644 L -47.4054 104.541 L -47.4607 104.516 L -47.6606 104.376 L -47.7106 104.341 L -47.8831 104.168 L -47.9263 104.125 L -48.0662 103.925 L -48.1012 103.875 L -48.2044 103.654 L -48.2301 103.599 L -48.2933 103.363 L -48.3091 103.304 L -48.3304 103.061 L -48.3357 103 L -48.3144 102.757 L -48.3091 102.696 L -48.2459 102.46 L -48.2301 102.401 L -48.127 102.18 L -48.1012 102.125 L -47.9613 101.925 L -47.9263 101.875 L -47.7537 101.703 L -47.7106 101.659 L -47.5107 101.519 L -47.4607 101.484 L -47.2395 101.381 L -47.1842 101.356 L -46.9485 101.292 L -46.8896 101.277 L -46.6465 101.255 L -46.5857 101.25 L -46.3426 101.271 L -46.2818 101.277 L -46.0461 101.34 L -45.9871 101.356 L -45.766 101.459 L -45.7107 101.484 L -45.5108 101.624 L -45.4608 101.659 L -45.2882 101.832 L -45.2451 101.875 L -45.1051 102.075 L -45.0701 102.125 L -44.967 102.346 L -44.9412 102.401 L -44.8781 102.637 L -44.8623 102.696 L -44.841 102.939 z  M -33.1623 97 L -33.1015 96.9947 L -32.8584 96.9734 L -32.7995 96.9576 L -32.5638 96.8945 L -32.5085 96.8687 L -32.2873 96.7655 L -32.2373 96.7306 L -32.0374 96.5906 L -31.9943 96.5474 L -31.8217 96.3749 L -31.7867 96.3249 L -31.6467 96.125 L -31.621 96.0697 L -31.5178 95.8485 L -31.502 95.7896 L -31.4389 95.5539 L -31.4336 95.4931 L -31.4123 95.25 L -31.4176 95.1892 L -31.4389 94.9461 L -31.4547 94.8872 L -31.5178 94.6515 L -31.5436 94.5962 L -31.6467 94.375 L -31.6817 94.325 L -31.8217 94.1251 L -31.8649 94.082 L -32.0374 93.9094 L -32.0874 93.8744 L -32.2873 93.7345 L -32.3426 93.7087 L -32.5638 93.6055 L -32.6227 93.5897 L -32.8584 93.5266 L -32.9192 93.5213 L -33.1623 93.5 L -33.2231 93.5053 L -33.4662 93.5266 L -33.5251 93.5424 L -33.7608 93.6055 L -33.8161 93.6313 L -34.0373 93.7345 L -34.0873 93.7694 L -34.2872 93.9094 L -34.3303 93.9526 L -34.5029 94.1251 L -34.5379 94.1751 L -34.6778 94.375 L -34.7036 94.4303 L -34.8068 94.6515 L -34.8225 94.7104 L -34.8857 94.9461 L -34.891 95.0069 L -34.9123 95.25 L -34.907 95.3108 L -34.8857 95.5539 L -34.8699 95.6128 L -34.8068 95.8485 L -34.781 95.9038 L -34.6778 96.125 L -34.6428 96.175 L -34.5029 96.3749 L -34.4597 96.418 L -34.2872 96.5906 L -34.2372 96.6256 L -34.0373 96.7655 L -33.982 96.7913 L -33.7608 96.8945 L -33.7019 96.9103 L -33.4662 96.9734 L -33.4054 96.9787 z  M -87.1218 106.225 L -87.0809 106.283 L -86.8768 106.575 L -86.8265 106.625 L -86.5748 106.877 L -86.5165 106.918 L -86.225 107.122 L -86.1605 107.152 L -85.8379 107.302 L -85.7692 107.321 L -85.4254 107.413 L -85.3545 107.419 L -85 107.45 L -84.9291 107.444 L -84.5746 107.413 L -84.5058 107.394 L -84.1621 107.302 L -84.0975 107.272 L -83.775 107.122 L -83.7167 107.081 L -83.4252 106.877 L -83.3748 106.826 L -83.1232 106.575 L -83.0824 106.517 L -82.8782 106.225 L -82.8482 106.16 L -82.6978 105.838 L -82.6793 105.769 L -82.5872 105.425 L -82.581 105.355 L -82.55 105 L -82.5562 104.929 L -82.5872 104.575 L -82.6057 104.506 L -82.6978 104.162 L -82.7278 104.098 L -82.8782 103.775 L -82.9191 103.717 L -83.1232 103.425 L -83.1735 103.375 L -83.4252 103.123 L -83.4835 103.082 L -83.775 102.878 L -83.8395 102.848 L -84.1621 102.698 L -84.2308 102.679 L -84.5746 102.587 L -84.6455 102.581 L -85 102.55 L -85.0709 102.556 L -85.4254 102.587 L -85.4942 102.606 L -85.8379 102.698 L -85.9025 102.728 L -86.225 102.878 L -86.2833 102.919 L -86.5748 103.123 L -86.6252 103.174 L -86.8768 103.425 L -86.9176 103.483 L -87.1218 103.775 L -87.1518 103.84 L -87.3022 104.162 L -87.3207 104.231 L -87.4128 104.575 L -87.419 104.645 L -87.45 105 L -87.4438 105.071 L -87.4128 105.425 L -87.3943 105.494 L -87.3022 105.838 L -87.2722 105.902 z  M -45.766 70.4587 L -45.7107 70.4845 L -45.5108 70.6244 L -45.4608 70.6594 L -45.2882 70.832 L -45.2451 70.8751 L -45.1051 71.075 L -45.0701 71.125 L -44.967 71.3462 L -44.9412 71.4015 L -44.8781 71.6372 L -44.8623 71.6961 L -44.841 71.9392 L -44.8357 72 L -44.857 72.2431 L -44.8623 72.3039 L -44.9254 72.5396 L -44.9412 72.5985 L -45.0444 72.8197 L -45.0701 72.875 L -45.2101 73.0749 L -45.2451 73.1249 L -45.4177 73.2974 L -45.4608 73.3406 L -45.6607 73.4805 L -45.7107 73.5155 L -45.9319 73.6187 L -45.9871 73.6445 L -46.2229 73.7076 L -46.2818 73.7234 L -46.5249 73.7447 L -46.5857 73.75 L -46.8288 73.7287 L -46.8896 73.7234 L -47.1253 73.6602 L -47.1842 73.6445 L -47.4054 73.5413 L -47.4607 73.5155 L -47.6606 73.3756 L -47.7106 73.3406 L -47.8831 73.168 L -47.9263 73.1249 L -48.0662 72.925 L -48.1012 72.875 L -48.2044 72.6538 L -48.2301 72.5985 L -48.2933 72.3628 L -48.3091 72.3039 L -48.3304 72.0608 L -48.3357 72 L -48.3144 71.7569 L -48.3091 71.6961 L -48.2459 71.4604 L -48.2301 71.4015 L -48.127 71.1803 L -48.1012 71.125 L -47.9613 70.9251 L -47.9263 70.8751 L -47.7537 70.7026 L -47.7106 70.6594 L -47.5107 70.5195 L -47.4607 70.4845 L -47.2395 70.3813 L -47.1842 70.3555 L -46.9485 70.2924 L -46.8896 70.2766 L -46.6465 70.2553 L -46.5857 70.25 L -46.3426 70.2713 L -46.2818 70.2766 L -46.0461 70.3397 L -45.9871 70.3555 z  M -34.8225 79.2104 L -34.8857 79.4461 L -34.891 79.5069 L -34.9123 79.75 L -34.907 79.8108 L -34.8857 80.0539 L -34.8699 80.1128 L -34.8068 80.3485 L -34.781 80.4038 L -34.6778 80.625 L -34.6428 80.675 L -34.5029 80.8749 L -34.4597 80.918 L -34.2872 81.0906 L -34.2372 81.1256 L -34.0373 81.2655 L -33.982 81.2913 L -33.7608 81.3945 L -33.7019 81.4103 L -33.4662 81.4734 L -33.4054 81.4787 L -33.1623 81.5 L -33.1015 81.4947 L -32.8584 81.4734 L -32.7995 81.4576 L -32.5638 81.3945 L -32.5085 81.3687 L -32.2873 81.2655 L -32.2373 81.2306 L -32.0374 81.0906 L -31.9943 81.0474 L -31.8217 80.8749 L -31.7867 80.8249 L -31.6467 80.625 L -31.621 80.5697 L -31.5178 80.3485 L -31.502 80.2896 L -31.4389 80.0539 L -31.4336 79.9931 L -31.4123 79.75 L -31.4176 79.6892 L -31.4389 79.4461 L -31.4547 79.3872 L -31.5178 79.1515 L -31.5436 79.0962 L -31.6467 78.875 L -31.6817 78.825 L -31.8217 78.6251 L -31.8649 78.582 L -32.0374 78.4094 L -32.0874 78.3744 L -32.2873 78.2345 L -32.3426 78.2087 L -32.5638 78.1055 L -32.6227 78.0897 L -32.8584 78.0266 L -32.9192 78.0213 L -33.1623 78 L -33.2231 78.0053 L -33.4662 78.0266 L -33.5251 78.0424 L -33.7608 78.1055 L -33.8161 78.1313 L -34.0373 78.2345 L -34.0873 78.2694 L -34.2872 78.4094 L -34.3303 78.4526 L -34.5029 78.6251 L -34.5379 78.6751 L -34.6778 78.875 L -34.7036 78.9303 L -34.8068 79.1515 z  M -61.6693 94.7104 L -61.7325 94.9461 L -61.7378 95.0069 L -61.7591 95.25 L -61.7538 95.3108 L -61.7325 95.5539 L -61.7167 95.6128 L -61.6535 95.8485 L -61.6278 95.9038 L -61.5246 96.125 L -61.4896 96.175 L -61.3497 96.3749 L -61.3065 96.418 L -61.134 96.5906 L -61.084 96.6256 L -60.8841 96.7655 L -60.8288 96.7913 L -60.6076 96.8945 L -60.5487 96.9103 L -60.313 96.9734 L -60.2522 96.9787 L -60.0091 97 L -59.9483 96.9947 L -59.7052 96.9734 L -59.6463 96.9576 L -59.4105 96.8945 L -59.3552 96.8687 L -59.1341 96.7655 L -59.0841 96.7306 L -58.8842 96.5906 L -58.8411 96.5474 L -58.6685 96.3749 L -58.6335 96.3249 L -58.4935 96.125 L -58.4678 96.0697 L -58.3646 95.8485 L -58.3488 95.7896 L -58.2857 95.5539 L -58.2803 95.4931 L -58.2591 95.25 L -58.2644 95.1892 L -58.2857 94.9461 L -58.3015 94.8872 L -58.3646 94.6515 L -58.3904 94.5962 L -58.4935 94.375 L -58.5285 94.325 L -58.6685 94.1251 L -58.7116 94.082 L -58.8842 93.9094 L -58.9342 93.8744 L -59.1341 93.7345 L -59.1894 93.7087 L -59.4105 93.6055 L -59.4695 93.5897 L -59.7052 93.5266 L -59.766 93.5213 L -60.0091 93.5 L -60.0699 93.5053 L -60.313 93.5266 L -60.3719 93.5424 L -60.6076 93.6055 L -60.6629 93.6313 L -60.8841 93.7345 L -60.9341 93.7694 L -61.134 93.9094 L -61.1771 93.9526 L -61.3497 94.1251 L -61.3847 94.1751 L -61.5246 94.375 L -61.5504 94.4303 L -61.6535 94.6515 z  M -42.7961 111.282 L -43.9061 111.841 L -46.4393 113.027 L -46.946 113.265 L -49.5441 114.301 L -50.0637 114.508 L -52.7179 115.391 L -53.2487 115.567 L -55.9499 116.294 L -56.4901 116.439 L -59.229 117.007 L -59.7768 117.12 L -62.5442 117.527 L -63.0977 117.608 L -65.8841 117.853 L -66.4414 117.902 L -69.2373 117.984 L -69.7965 118 L -91.6328 118 L -96 118 L -96.5788 117.949 L -96.6946 117.939 L -97.2558 117.789 L -97.3681 117.759 L -97.8947 117.513 L -98 117.464 L -98.476 117.131 L -98.5712 117.064 L -98.982 116.653 L -99.0642 116.571 L -99.3974 116.095 L -99.4641 116 L -99.7097 115.473 L -99.7588 115.368 L -99.9091 114.807 L -99.9392 114.695 L -99.9899 114.116 L -100 114 L -100 69.8333 L -100 61 L -99.9494 60.4212 L -99.9392 60.3054 L -99.7888 59.7442 L -99.7588 59.6319 L -99.5132 59.1053 L -99.4641 59 L -99.1308 58.524 L -99.0642 58.4288 L -98.6533 58.018 L -98.5712 57.9358 L -98.0952 57.6025 L -98 57.5359 L -97.4734 57.2903 L -97.3681 57.2412 L -96.8068 57.0908 L -96.6946 57.0608 L -96.1158 57.0101 L -96 57 L -74.1637 57 L -69.7965 57 L -67.0005 57.0816 L -66.4414 57.098 L -63.6549 57.3426 L -63.0977 57.3915 L -60.3303 57.7984 L -59.7768 57.8797 L -57.0379 58.4473 L -56.4901 58.5608 L -53.7889 59.2873 L -53.2487 59.4326 L -50.5945 60.3154 L -50.0637 60.492 L -47.4656 61.5281 L -46.946 61.7354 L -44.4127 62.9214 L -43.9061 63.1586 L -38.3563 65.9573 L -37.2463 66.517 L -35.6112 67.4425 L -35.2842 67.6276 L -33.7454 68.7055 L -33.4376 68.921 L -32.0091 70.1415 L -31.7234 70.3855 L -30.4184 71.7372 L -30.1575 72.0076 L -28.988 73.4781 L -28.7541 73.7722 L -27.731 75.348 L -27.5264 75.6632 L -26.659 77.3298 L -26.4855 77.6631 L -25.7818 79.4051 L -25.6411 79.7535 L -25.1075 81.555 L -25.0008 81.9153 L -24.6424 83.7596 L -24.5707 84.1285 L -24.3907 85.9987 L -24.3547 86.3727 L -24.3547 88.2515 L -24.3547 88.6273 L -24.5347 90.4975 L -24.5707 90.8715 L -24.9291 92.7158 L -25.0008 93.0847 L -25.5344 94.8862 L -25.6411 95.2464 L -26.3448 96.9885 L -26.4855 97.3369 L -27.3529 99.0035 L -27.5264 99.3369 L -28.5495 100.913 L -28.7541 101.228 L -29.9236 102.698 L -30.1575 102.992 L -31.4624 104.344 L -31.7234 104.614 L -33.1519 105.835 L -33.4376 106.079 L -34.9764 107.157 L -35.2842 107.372 L -36.9193 108.298 L -37.2463 108.483 z  M -61.6693 79.2104 L -61.7325 79.4461 L -61.7378 79.5069 L -61.7591 79.75 L -61.7538 79.8108 L -61.7325 80.0539 L -61.7167 80.1128 L -61.6535 80.3485 L -61.6278 80.4038 L -61.5246 80.625 L -61.4896 80.675 L -61.3497 80.8749 L -61.3065 80.918 L -61.134 81.0906 L -61.084 81.1256 L -60.8841 81.2655 L -60.8288 81.2913 L -60.6076 81.3945 L -60.5487 81.4103 L -60.313 81.4734 L -60.2522 81.4787 L -60.0091 81.5 L -59.9483 81.4947 L -59.7052 81.4734 L -59.6463 81.4576 L -59.4105 81.3945 L -59.3552 81.3687 L -59.1341 81.2655 L -59.0841 81.2306 L -58.8842 81.0906 L -58.8411 81.0474 L -58.6685 80.8749 L -58.6335 80.8249 L -58.4935 80.625 L -58.4678 80.5697 L -58.3646 80.3485 L -58.3488 80.2896 L -58.2857 80.0539 L -58.2803 79.9931 L -58.2591 79.75 L -58.2644 79.6892 L -58.2857 79.4461 L -58.3015 79.3872 L -58.3646 79.1515 L -58.3904 79.0962 L -58.4935 78.875 L -58.5285 78.825 L -58.6685 78.6251 L -58.7116 78.582 L -58.8842 78.4094 L -58.9342 78.3744 L -59.1341 78.2345 L -59.1894 78.2087 L -59.4105 78.1055 L -59.4695 78.0897 L -59.7052 78.0266 L -59.766 78.0213 L -60.0091 78 L -60.0699 78.0053 L -60.313 78.0266 L -60.3719 78.0424 L -60.6076 78.1055 L -60.6629 78.1313 L -60.8841 78.2345 L -60.9341 78.2694 L -61.134 78.4094 L -61.1771 78.4526 L -61.3497 78.6251 L -61.3847 78.6751 L -61.5246 78.875 L -61.5504 78.9303 L -61.6535 79.1515 z  " fill= "none" stroke="rgb(0,0,255)" stroke-width="0.05mm" />
</svg>
