<?xml version="1.0" standalone="no"?>
<!DOCTYPE svg PUBLIC "-//W3C//DTD SVG 1.1//EN"
"http://www.w3.org/Graphics/SVG/1.1/DTD/svg11.dtd">
<svg width="8.4865cm" height="34.65cm" viewBox="-96.3575 -8.25 84.865 346.5" xmlns="http://www.w3.org/2000/svg" version = "1.1">
<title>Belt Stops.123dx</title>
<desc> made with Tinkercad 123D Design </desc>
<path d="M -27.7244 216.013 L -27.8349 216.25 L -27.9349 216.393 L -28.0849 216.607 L -28.2081 216.73 L -28.393 216.915 L -28.5358 217.015 L -28.75 217.165 L -28.908 217.239 L -29.145 217.349 L -29.3133 217.394 L -29.5659 217.462 L -29.7395 217.477 L -30 217.5 L -30.1736 217.485 L -30.4341 217.462 L -30.6025 217.417 L -30.855 217.349 L -31.013 217.276 L -31.25 217.165 L -31.3928 217.065 L -31.607 216.915 L -31.7302 216.792 L -31.9151 216.607 L -32.0151 216.464 L -32.1651 216.25 L -32.2387 216.092 L -32.3492 215.855 L -32.3943 215.687 L -32.462 215.434 L -32.4772 215.26 L -32.5 215 L -32.4848 214.826 L -32.462 214.566 L -32.4169 214.398 L -32.3492 214.145 L -32.2756 213.987 L -32.1651 213.75 L -32.0651 213.607 L -31.9151 213.393 L -31.7919 213.27 L -31.607 213.085 L -31.4642 212.985 L -31.25 212.835 L -31.092 212.761 L -30.855 212.651 L -30.6867 212.606 L -30.4341 212.538 L -30.2605 212.523 L -30 212.5 L -29.8264 212.515 L -29.5659 212.538 L -29.3975 212.583 L -29.145 212.651 L -28.987 212.724 L -28.75 212.835 L -28.6072 212.935 L -28.393 213.085 L -28.2698 213.208 L -28.0849 213.393 L -27.9849 213.536 L -27.8349 213.75 L -27.7613 213.908 L -27.6508 214.145 L -27.6057 214.313 L -27.538 214.566 L -27.5228 214.74 L -27.5 215 L -27.5152 215.174 L -27.538 215.434 L -27.5831 215.602 L -27.6508 215.855 z  M -30.6025 167.417 L -30.4341 167.462 L -30.1736 167.485 L -30 167.5 L -29.7395 167.477 L -29.5659 167.462 L -29.3133 167.394 L -29.145 167.349 L -28.908 167.239 L -28.75 167.165 L -28.5358 167.015 L -28.393 166.915 L -28.2081 166.73 L -28.0849 166.607 L -27.9349 166.393 L -27.8349 166.25 L -27.7244 166.013 L -27.6508 165.855 L -27.5831 165.602 L -27.538 165.434 L -27.5152 165.174 L -27.5 165 L -27.5228 164.74 L -27.538 164.566 L -27.6057 164.313 L -27.6508 164.145 L -27.7613 163.908 L -27.8349 163.75 L -27.9849 163.536 L -28.0849 163.393 L -28.2698 163.208 L -28.393 163.085 L -28.6072 162.935 L -28.75 162.835 L -28.987 162.724 L -29.145 162.651 L -29.3975 162.583 L -29.5659 162.538 L -29.8264 162.515 L -30 162.5 L -30.2605 162.523 L -30.4341 162.538 L -30.6867 162.606 L -30.855 162.651 L -31.092 162.761 L -31.25 162.835 L -31.4642 162.985 L -31.607 163.085 L -31.7919 163.27 L -31.9151 163.393 L -32.0651 163.607 L -32.1651 163.75 L -32.2756 163.987 L -32.3492 164.145 L -32.4169 164.398 L -32.462 164.566 L -32.4848 164.826 L -32.5 165 L -32.4772 165.26 L -32.462 165.434 L -32.3943 165.687 L -32.3492 165.855 L -32.2387 166.092 L -32.1651 166.25 L -32.0151 166.464 L -31.9151 166.607 L -31.7302 166.792 L -31.607 166.915 L -31.3928 167.065 L -31.25 167.165 L -31.013 167.276 L -30.855 167.349 z  M -30.6867 112.606 L -30.855 112.651 L -31.092 112.761 L -31.25 112.835 L -31.4642 112.985 L -31.607 113.085 L -31.7919 113.27 L -31.9151 113.393 L -32.0651 113.607 L -32.1651 113.75 L -32.2756 113.987 L -32.3492 114.145 L -32.4169 114.398 L -32.462 114.566 L -32.4848 114.826 L -32.5 115 L -32.4772 115.26 L -32.462 115.434 L -32.3943 115.687 L -32.3492 115.855 L -32.2387 116.092 L -32.1651 116.25 L -32.0151 116.464 L -31.9151 116.607 L -31.7302 116.792 L -31.607 116.915 L -31.3928 117.065 L -31.25 117.165 L -31.013 117.276 L -30.855 117.349 L -30.6025 117.417 L -30.4341 117.462 L -30.1736 117.485 L -30 117.5 L -29.7395 117.477 L -29.5659 117.462 L -29.3133 117.394 L -29.145 117.349 L -28.908 117.239 L -28.75 117.165 L -28.5358 117.015 L -28.393 116.915 L -28.2081 116.73 L -28.0849 116.607 L -27.9349 116.393 L -27.8349 116.25 L -27.7244 116.013 L -27.6508 115.855 L -27.5831 115.602 L -27.538 115.434 L -27.5152 115.174 L -27.5 115 L -27.5228 114.74 L -27.538 114.566 L -27.6057 114.313 L -27.6508 114.145 L -27.7613 113.908 L -27.8349 113.75 L -27.9849 113.536 L -28.0849 113.393 L -28.2698 113.208 L -28.393 113.085 L -28.6072 112.935 L -28.75 112.835 L -28.987 112.724 L -29.145 112.651 L -29.3975 112.583 L -29.5659 112.538 L -29.8264 112.515 L -30 112.5 L -30.2605 112.523 L -30.4341 112.538 z  M -40.067 29.1057 L -40 30 L -40 54 L -40 70 L -40.0447 70.5962 L -40.1117 71.4904 L -40.2447 72.0733 L -40.4443 72.9475 L -40.6627 73.5041 L -40.9903 74.3388 L -41.2892 74.8566 L -41.7376 75.6332 L -42.1104 76.1006 L -42.6695 76.8017 L -43.1077 77.2084 L -43.7651 77.8183 L -44.2591 78.1551 L -45 78.6603 L -45.5386 78.9196 L -46.3466 79.3087 L -46.9179 79.485 L -47.7748 79.7493 L -48.366 79.8384 L -49.2527 79.972 L -49.8505 79.972 L -50.7473 79.972 L -51.3385 79.8829 L -52.2252 79.7493 L -52.7965 79.5731 L -53.6534 79.3087 L -54.192 79.0493 L -55 78.6603 L -55.494 78.3235 L -56.2349 77.8183 L -56.6731 77.4117 L -57.3305 76.8017 L -57.7033 76.3343 L -58.2624 75.6332 L -58.5613 75.1155 L -59.0097 74.3388 L -59.2281 73.7823 L -59.5557 72.9475 L -59.6888 72.3647 L -59.8883 71.4904 L -59.933 70.8942 L -60 70 L -60 46 L -60 30 L -59.9553 29.4038 L -59.8883 28.5096 L -59.7553 27.9267 L -59.5557 27.0524 L -59.3373 26.4959 L -59.0097 25.6612 L -58.7108 25.1434 L -58.2624 24.3668 L -57.8896 23.8994 L -57.3305 23.1983 L -56.8923 22.7916 L -56.2349 22.1817 L -55.7409 21.8449 L -55 21.3397 L -54.4614 21.0804 L -53.6534 20.6913 L -53.0821 20.515 L -52.2252 20.2507 L -51.634 20.1616 L -50.7473 20.028 L -50.1495 20.028 L -49.2527 20.028 L -48.6615 20.1171 L -47.7748 20.2507 L -47.2035 20.4269 L -46.3466 20.6913 L -45.808 20.9507 L -45 21.3397 L -44.506 21.6765 L -43.7651 22.1817 L -43.3269 22.5883 L -42.6695 23.1983 L -42.2967 23.6657 L -41.7376 24.3668 L -41.4387 24.8845 L -40.9903 25.6612 L -40.7719 26.2177 L -40.4443 27.0524 L -40.3112 27.6353 L -40.1117 28.5096 z  M -53.6534 250.691 L -54.4614 251.08 L -55 251.34 L -55.7409 251.845 L -56.2349 252.182 L -56.8923 252.792 L -57.3305 253.198 L -57.8896 253.899 L -58.2624 254.367 L -58.7108 255.143 L -59.0097 255.661 L -59.3373 256.496 L -59.5557 257.052 L -59.7553 257.927 L -59.8883 258.51 L -59.9553 259.404 L -60 260 L -60 276 L -60 300 L -59.933 300.894 L -59.8883 301.49 L -59.6888 302.365 L -59.5557 302.948 L -59.2281 303.782 L -59.0097 304.339 L -58.5613 305.115 L -58.2624 305.633 L -57.7033 306.334 L -57.3305 306.802 L -56.6731 307.412 L -56.2349 307.818 L -55.494 308.323 L -55 308.66 L -54.192 309.049 L -53.6534 309.309 L -52.7965 309.573 L -52.2252 309.749 L -51.3385 309.883 L -50.7473 309.972 L -49.8505 309.972 L -49.2527 309.972 L -48.366 309.838 L -47.7748 309.749 L -46.9179 309.485 L -46.3466 309.309 L -45.5386 308.92 L -45 308.66 L -44.2591 308.155 L -43.7651 307.818 L -43.1077 307.208 L -42.6695 306.802 L -42.1104 306.101 L -41.7376 305.633 L -41.2892 304.857 L -40.9903 304.339 L -40.6627 303.504 L -40.4443 302.948 L -40.2447 302.073 L -40.1117 301.49 L -40.0447 300.596 L -40 300 L -40 284 L -40 260 L -40.067 259.106 L -40.1117 258.51 L -40.3112 257.635 L -40.4443 257.052 L -40.7719 256.218 L -40.9903 255.661 L -41.4387 254.885 L -41.7376 254.367 L -42.2967 253.666 L -42.6695 253.198 L -43.3269 252.588 L -43.7651 252.182 L -44.506 251.677 L -45 251.34 L -45.808 250.951 L -46.3466 250.691 L -47.2035 250.427 L -47.7748 250.251 L -48.6615 250.117 L -49.2527 250.028 L -50.1495 250.028 L -50.7473 250.028 L -51.634 250.162 L -52.2252 250.251 L -53.0821 250.515 z  M -62.538 114.566 L -62.5228 114.74 L -62.5 115 L -62.5152 115.174 L -62.538 115.434 L -62.5831 115.602 L -62.6508 115.855 L -62.7244 116.013 L -62.8349 116.25 L -62.9349 116.393 L -63.0849 116.607 L -63.2081 116.73 L -63.393 116.915 L -63.5358 117.015 L -63.75 117.165 L -63.908 117.239 L -64.145 117.349 L -64.3133 117.394 L -64.5659 117.462 L -64.7395 117.477 L -65 117.5 L -65.1737 117.485 L -65.4341 117.462 L -65.6025 117.417 L -65.855 117.349 L -66.013 117.276 L -66.25 117.165 L -66.3928 117.065 L -66.607 116.915 L -66.7302 116.792 L -66.9151 116.607 L -67.0151 116.464 L -67.1651 116.25 L -67.2387 116.092 L -67.3492 115.855 L -67.3943 115.687 L -67.462 115.434 L -67.4772 115.26 L -67.5 115 L -67.4848 114.826 L -67.462 114.566 L -67.4169 114.398 L -67.3492 114.145 L -67.2756 113.987 L -67.1651 113.75 L -67.0651 113.607 L -66.9151 113.393 L -66.7919 113.27 L -66.607 113.085 L -66.4642 112.985 L -66.25 112.835 L -66.092 112.761 L -65.855 112.651 L -65.6867 112.606 L -65.4341 112.538 L -65.2605 112.523 L -65 112.5 L -64.8263 112.515 L -64.5659 112.538 L -64.3975 112.583 L -64.145 112.651 L -63.987 112.724 L -63.75 112.835 L -63.6072 112.935 L -63.393 113.085 L -63.2698 113.208 L -63.0849 113.393 L -62.9849 113.536 L -62.8349 113.75 L -62.7613 113.908 L -62.6508 114.145 L -62.6057 114.313 z  M -64.145 167.349 L -63.908 167.239 L -63.75 167.165 L -63.5358 167.015 L -63.393 166.915 L -63.2081 166.73 L -63.0849 166.607 L -62.9349 166.393 L -62.8349 166.25 L -62.7244 166.013 L -62.6508 165.855 L -62.5831 165.602 L -62.538 165.434 L -62.5152 165.174 L -62.5 165 L -62.5228 164.74 L -62.538 164.566 L -62.6057 164.313 L -62.6508 164.145 L -62.7613 163.908 L -62.8349 163.75 L -62.9849 163.536 L -63.0849 163.393 L -63.2698 163.208 L -63.393 163.085 L -63.6072 162.935 L -63.75 162.835 L -63.987 162.724 L -64.145 162.651 L -64.3975 162.583 L -64.5659 162.538 L -64.8263 162.515 L -65 162.5 L -65.2605 162.523 L -65.4341 162.538 L -65.6867 162.606 L -65.855 162.651 L -66.092 162.761 L -66.25 162.835 L -66.4642 162.985 L -66.607 163.085 L -66.7919 163.27 L -66.9151 163.393 L -67.0651 163.607 L -67.1651 163.75 L -67.2756 163.987 L -67.3492 164.145 L -67.4169 164.398 L -67.462 164.566 L -67.4848 164.826 L -67.5 165 L -67.4772 165.26 L -67.462 165.434 L -67.3943 165.687 L -67.3492 165.855 L -67.2387 166.092 L -67.1651 166.25 L -67.0151 166.464 L -66.9151 166.607 L -66.7302 166.792 L -66.607 166.915 L -66.3928 167.065 L -66.25 167.165 L -66.013 167.276 L -65.855 167.349 L -65.6025 167.417 L -65.4341 167.462 L -65.1737 167.485 L -65 167.5 L -64.7395 167.477 L -64.5659 167.462 L -64.3133 167.394 z  M -66.9151 213.393 L -67.0651 213.607 L -67.1651 213.75 L -67.2756 213.987 L -67.3492 214.145 L -67.4169 214.398 L -67.462 214.566 L -67.4848 214.826 L -67.5 215 L -67.4772 215.26 L -67.462 215.434 L -67.3943 215.687 L -67.3492 215.855 L -67.2387 216.092 L -67.1651 216.25 L -67.0151 216.464 L -66.9151 216.607 L -66.7302 216.792 L -66.607 216.915 L -66.3928 217.065 L -66.25 217.165 L -66.013 217.276 L -65.855 217.349 L -65.6025 217.417 L -65.4341 217.462 L -65.1737 217.485 L -65 217.5 L -64.7395 217.477 L -64.5659 217.462 L -64.3133 217.394 L -64.145 217.349 L -63.908 217.239 L -63.75 217.165 L -63.5358 217.015 L -63.393 216.915 L -63.2081 216.73 L -63.0849 216.607 L -62.9349 216.393 L -62.8349 216.25 L -62.7244 216.013 L -62.6508 215.855 L -62.5831 215.602 L -62.538 215.434 L -62.5152 215.174 L -62.5 215 L -62.5228 214.74 L -62.538 214.566 L -62.6057 214.313 L -62.6508 214.145 L -62.7613 213.908 L -62.8349 213.75 L -62.9849 213.536 L -63.0849 213.393 L -63.2698 213.208 L -63.393 213.085 L -63.6072 212.935 L -63.75 212.835 L -63.987 212.724 L -64.145 212.651 L -64.3975 212.583 L -64.5659 212.538 L -64.8263 212.515 L -65 212.5 L -65.2605 212.523 L -65.4341 212.538 L -65.6867 212.606 L -65.855 212.651 L -66.092 212.761 L -66.25 212.835 L -66.4642 212.985 L -66.607 213.085 L -66.7919 213.27 z  M -63.1991 9.62947 L -64.3669 10.002 L -66.0736 10.6854 L -67.2115 11.1411 L -68.8646 11.9458 L -69.9666 12.4822 L -71.5575 13.4039 L -72.618 14.0184 L -74.1383 15.0523 L -75.1518 15.7416 L -76.5936 16.8824 L -77.5548 17.6429 L -78.9107 18.8846 L -79.8146 19.7124 L -81.0775 21.0486 L -81.9194 21.9394 L -83.0828 23.363 L -83.8583 24.3122 L -84.916 25.816 L -85.6212 26.8185 L -86.5678 28.3946 L -87.1989 29.4454 L -88.0295 31.0856 L -88.5832 32.1791 L -89.2935 33.8749 L -89.767 35.0054 L -90.3532 36.748 L -90.744 37.9097 L -91.2032 39.69 L -91.5093 40.8769 L -91.8389 42.6856 L -92.0587 43.8914 L -92.2572 45.7192 L -92.3895 46.9378 L -92.4558 48.7751 L -92.5 50 L -92.5 188 L -92.5 280 L -92.4337 281.837 L -92.3895 283.062 L -92.191 284.89 L -92.0587 286.109 L -91.729 287.917 L -91.5093 289.123 L -91.0501 290.903 L -90.744 292.09 L -90.1578 293.833 L -89.767 294.995 L -89.0567 296.69 L -88.5832 297.821 L -87.7526 299.461 L -87.1989 300.555 L -86.2523 302.131 L -85.6212 303.181 L -84.5635 304.685 L -83.8583 305.688 L -82.695 307.112 L -81.9194 308.061 L -80.6565 309.397 L -79.8146 310.288 L -78.4587 311.529 L -77.5548 312.357 L -76.113 313.498 L -75.1518 314.258 L -73.6315 315.292 L -72.618 315.982 L -71.0272 316.903 L -69.9666 317.518 L -68.3135 318.322 L -67.2115 318.859 L -65.5047 319.542 L -64.3669 319.998 L -62.6153 320.557 L -61.4475 320.929 L -59.6602 321.36 L -58.4687 321.648 L -56.655 321.949 L -55.4459 322.15 L -53.6152 322.319 L -52.3947 322.432 L -50.5566 322.47 L -49.3311 322.495 L -47.495 322.4 L -46.271 322.336 L -44.4466 322.109 L -43.2303 321.957 L -41.4269 321.599 L -40.2247 321.361 L -38.4519 320.873 L -37.27 320.549 L -35.5368 319.935 L -34.3814 319.526 L -32.697 318.789 L -31.5741 318.298 L -29.9471 317.442 L -28.8625 316.871 L -27.3015 315.899 L -26.2608 315.252 L -24.7738 314.171 L -23.7825 313.45 L -22.3773 312.264 L -21.4405 311.474 L -20.1243 310.19 L -19.2469 309.334 L -18.0267 307.959 L -17.2132 307.042 L -16.0953 305.583 L -15.35 304.609 L -15.35 137.078 L -15.35 25.3905 L -16.4679 23.9309 L -17.2132 22.9578 L -18.4335 21.5826 L -19.2469 20.6657 L -20.5631 19.382 L -21.4405 18.5261 L -22.8457 17.3406 L -23.7825 16.5502 L -25.2695 15.4689 L -26.2608 14.7481 L -27.8218 13.7768 L -28.8625 13.1292 L -30.4894 12.2729 L -31.5741 11.702 L -33.2585 10.9652 L -34.3814 10.4739 L -36.1146 9.86036 L -37.27 9.45131 L -39.0428 8.9642 L -40.2247 8.63947 L -42.028 8.28137 L -43.2303 8.04263 L -45.0547 7.8154 L -46.271 7.66391 L -48.1071 7.56872 L -49.3311 7.50526 L -51.1693 7.54262 L -52.3947 7.56752 L -54.2254 7.73722 L -55.4459 7.85036 L -57.2596 8.15152 L -58.4687 8.3523 L -60.256 8.78337 L -61.4475 9.07075 z  " fill= "none" stroke="rgb(0,0,255)" stroke-width="0.05mm" />
</svg>
